# xmcd
#
# Track frame offsets:
#	150
#	18305
#	32555
#	51955
#	75857
#	97915
#	115025
#	145630
#	164657
#	180010
#	221197
#	238320
#	258690
#	278495
#
# Disc length: 3937 seconds
#
# Revision: 0
# Processed by: cddbd v1.5.2PL0 Copyright (c) Steve Scherf et al.
# Submitted via: audiograbber 1.83.01
#
DISCID=b20f5f0e
DTITLE=Various Artist - ALR Jordan The Music - The Collection 3 - Bass and Drums
DTITLE=[24 K Gold-CD]
DYEAR=1997
DGENRE=AudioPhile
TTITLE0=Cheryl Wheeler - His Hometown
TTITLE1=Dave's True Story - Spasm
TTITLE2=Sherman Robertson - Fall In Love
TTITLE3=Oregon - The Silence Of A Candle
TTITLE4=Junior Wells - Sweet Sixteen
TTITLE5=Werner Lener Trio - Boogie Bop
TTITLE6=Hans Theessink - Missing You
TTITLE7=The Band - Book Faded Brown
TTITLE8=Drummond - Jones - Higgins - Mr. Higgins, Suh
TTITLE9=Rory Block - Life Song
TTITLE10=John Pizzarelli - I'm An Errand Boy For Rhythm
TTITLE11=Lynn Miles - Map Of My Heart
TTITLE12=Lucky Peterson - Under My Thumb
TTITLE13=The Love Dogs - That's The Stuff You Gotta Watch
EXTD=
EXTT0=
EXTT1=
EXTT2=
EXTT3=
EXTT4=
EXTT5=
EXTT6=
EXTT7=
EXTT8=
EXTT9=
EXTT10=
EXTT11=
EXTT12=
EXTT13=
PLAYORDER=
